<svg width="40" height="40" viewBox="0 0 40 40" fill="none" xmlns="http://www.w3.org/2000/svg">
<path d="M26.0433 24.3667C24.1983 27.065 21.4966 28.34 18.3349 28.34C14.4949 28.34 11.2066 25.385 11.6799 21.4667C12.2033 17.12 15.5799 15.25 21.1933 14.5617C22.1949 14.44 22.6099 14.405 24.7716 14.245L25.0016 14.2283V13.87C24.9999 10.8767 23.2216 8.83333 20.8333 8.83333C18.4383 8.83333 16.7666 10.0783 15.7416 13.0433L12.5916 11.9567C14.0699 7.67333 16.9883 5.5 20.8333 5.5C25.1699 5.5 28.3333 9.13 28.3333 13.87C28.3333 18.285 28.6049 21.7967 29.1383 23.1317C29.7316 24.62 29.9483 24.9933 30.6116 25.82L28.0116 27.905C27.1383 26.8183 26.7566 26.1583 26.0416 24.3683M35.4266 34.2433C34.9766 34.5767 34.1916 34.3783 34.5466 33.51C34.9866 32.43 35.4583 31.1633 34.9833 30.59C34.6333 30.165 34.2033 29.9533 33.2716 29.9533C32.5049 29.9533 32.1216 30.0533 31.6133 30.0867C31.2733 30.11 31.1233 29.5917 31.4616 29.3533C31.8966 29.045 32.3683 28.8033 32.9116 28.64C34.8283 28.0667 37.0866 28.3817 37.3616 28.7783C37.9699 29.6617 37.0283 33.06 35.4283 34.245M33.4583 32.4383C33.0244 32.8552 32.5628 33.2422 32.0766 33.5967C28.5399 36.29 23.9583 37.6967 19.9799 37.6967C13.5749 37.6967 7.84661 34.7083 3.49995 29.705C3.12661 29.3217 3.43495 28.7617 3.87161 29.065C8.55495 32.5267 14.3516 34.62 20.3516 34.62C24.1283 34.62 28.1983 33.725 32.0766 31.8C32.3483 31.6717 32.6516 31.4967 32.9166 31.375C33.5283 31.025 34.0666 31.885 33.4583 32.4383ZM25.0183 17.5717C22.9199 17.7283 22.5249 17.76 21.5983 17.8733C17.3433 18.395 15.2699 19.545 14.9883 21.87C14.7799 23.6083 16.3383 25.01 18.3349 25.01C21.7333 25.01 24.1966 22.9633 25.0383 17.5717H25.0183Z" fill="#353344"/>
</svg>
