<svg width="40" height="40" viewBox="0 0 40 40" fill="none" xmlns="http://www.w3.org/2000/svg">
<g clip-path="url(#clip0_104_345)">
<path d="M21.0751 22.772H26.1201C27.5551 22.772 28.4634 21.982 28.4634 20.7137C28.4634 19.5187 27.5551 18.657 26.1201 18.657H21.0751C20.9084 18.657 20.7634 18.8003 20.7634 18.9437V22.4853C20.7884 22.652 20.9067 22.772 21.0751 22.772ZM21.0751 30.932H26.2884C27.8901 30.932 28.8467 30.1187 28.8467 28.682C28.8467 27.4387 27.9384 26.432 26.2884 26.432H21.0751C20.9084 26.432 20.7634 26.577 20.7634 26.7203V30.6203C20.7884 30.812 20.9067 30.932 21.0751 30.932ZM39.5334 0.0886634L24.6117 14.972H27.0517C30.8534 14.972 33.1017 17.3637 33.1017 19.972C33.1017 22.0303 31.7151 23.5387 30.2317 24.207C29.9934 24.3037 29.9934 24.6387 30.2551 24.7337C31.9767 25.4037 33.1967 27.2003 33.1967 29.3037C33.1967 32.2703 31.2134 34.6403 27.3634 34.6403H16.7934C16.6267 34.6403 16.4817 34.497 16.4817 34.3537V23.0837L0.103412 39.4003C-0.113255 39.617 0.0317454 39.9987 0.341745 39.9987H39.7267C39.7963 39.9978 39.8628 39.9698 39.912 39.9206C39.9612 39.8714 39.9892 39.8049 39.9901 39.7353V0.303663C40.0617 0.0403301 39.7267 -0.103003 39.5351 0.0869968L39.5334 0.0886634Z" fill="#353344"/>
</g>
<defs>
<clipPath id="clip0_104_345">
<rect width="40" height="40" fill="white"/>
</clipPath>
</defs>
</svg>
