<svg width="40" height="40" viewBox="0 0 40 40" fill="none" xmlns="http://www.w3.org/2000/svg">
<path d="M28.3334 18.0075C28.3334 17.4313 28.3334 17.1433 28.42 16.8867C28.672 16.1407 29.3364 15.8513 30.0019 15.5481C30.75 15.2074 31.124 15.037 31.4947 15.007C31.9155 14.973 32.337 15.0636 32.6967 15.2655C33.1735 15.5331 33.506 16.0416 33.8465 16.455C35.4189 18.3647 36.2049 19.3197 36.4925 20.3727C36.7247 21.2223 36.7247 22.111 36.4925 22.9607C36.073 24.4965 34.7475 25.784 33.7664 26.9757C33.2645 27.5852 33.0135 27.89 32.6967 28.0678C32.337 28.2697 31.9155 28.3603 31.4947 28.3263C31.124 28.2963 30.75 28.126 30.0019 27.7852C29.3364 27.482 28.672 27.1927 28.42 26.4467C28.3334 26.19 28.3334 25.902 28.3334 25.3258V18.0075Z" stroke="#4F3BE2" stroke-width="1.5"/>
<path d="M11.6667 18.0077C11.6667 17.2823 11.6463 16.6304 11.0599 16.1203C10.8466 15.9348 10.5638 15.806 9.99822 15.5484C9.25006 15.2076 8.87597 15.0373 8.50531 15.0073C7.39322 14.9173 6.79491 15.6764 6.15359 16.4553C4.58129 18.365 3.79514 19.3198 3.50747 20.3728C3.27534 21.2227 3.27534 22.1113 3.50747 22.961C3.92704 24.4968 5.25257 25.7842 6.23372 26.976C6.85219 27.7272 7.44299 28.4125 8.50531 28.3267C8.87597 28.2967 9.25006 28.1262 9.99822 27.7855C10.5638 27.5278 10.8466 27.399 11.0599 27.2135C11.6463 26.7035 11.6667 26.0517 11.6667 25.3262V18.0077Z" stroke="#4F3BE2" stroke-width="1.5"/>
<path d="M8.33337 15C8.33337 9.47715 13.5567 5 20 5C26.4434 5 31.6667 9.47715 31.6667 15" stroke="#4F3BE2" stroke-width="1.5" stroke-linecap="square" stroke-linejoin="round"/>
<path d="M31.6666 28.3333V29.6667C31.6666 32.6122 28.6818 35 25 35H21.6666" stroke="#4F3BE2" stroke-width="1.5" stroke-linecap="round" stroke-linejoin="round"/>
</svg>
