<svg width="40" height="40" viewBox="0 0 40 40" fill="none" xmlns="http://www.w3.org/2000/svg">
<path d="M8.33337 15C8.33337 9.50028 8.33337 6.75042 10.0419 5.04188C11.7505 3.33333 14.5003 3.33333 20 3.33333C25.4997 3.33333 28.2495 3.33333 29.9582 5.04188C31.6667 6.75042 31.6667 9.50028 31.6667 15V25C31.6667 30.4997 31.6667 33.2495 29.9582 34.9582C28.2495 36.6667 25.4997 36.6667 20 36.6667C14.5003 36.6667 11.7505 36.6667 10.0419 34.9582C8.33337 33.2495 8.33337 30.4997 8.33337 25V15Z" stroke="#4F3BE2" stroke-width="1.5" stroke-linecap="round"/>
<path d="M18.3334 31.6667H21.6667" stroke="#4F3BE2" stroke-width="1.5" stroke-linecap="round" stroke-linejoin="round"/>
<path d="M15 3.33333L15.1483 4.22337C15.4698 6.15215 15.6305 7.11655 16.292 7.7034C16.982 8.31557 17.9602 8.33333 20 8.33333C22.0398 8.33333 23.018 8.31557 23.708 7.7034C24.3695 7.11655 24.5302 6.15215 24.8517 4.22337L25 3.33333" stroke="#4F3BE2" stroke-width="1.5" stroke-linejoin="round"/>
</svg>
