<svg width="40" height="40" viewBox="0 0 40 40" fill="none" xmlns="http://www.w3.org/2000/svg">
<path d="M3.33325 7.5H14.5955C15.9216 7.5 17.1934 8.02678 18.1311 8.96447L23.3333 14.1667" stroke="#4F3BE2" stroke-width="1.5" stroke-linecap="round" stroke-linejoin="round"/>
<path d="M8.33325 22.5H3.33325" stroke="#4F3BE2" stroke-width="1.5" stroke-linecap="round" stroke-linejoin="round"/>
<path d="M14.1666 12.5L17.4999 15.8333C18.4204 16.7538 18.4204 18.2462 17.4999 19.1667C16.5795 20.0872 15.0871 20.0872 14.1666 19.1667L11.6666 16.6667C10.2321 18.1012 7.9611 18.2625 6.33815 17.0453L5.83325 16.6667" stroke="#4F3BE2" stroke-width="1.5" stroke-linecap="round" stroke-linejoin="round"/>
<path d="M8.33325 18.3333V25.8333C8.33325 28.976 8.33325 30.5473 9.30957 31.5237C10.2859 32.5 11.8572 32.5 14.9999 32.5H29.9999C33.1426 32.5 34.7139 32.5 35.6903 31.5237C36.6666 30.5473 36.6666 28.976 36.6666 25.8333V20.8333C36.6666 17.6907 36.6666 16.1193 35.6903 15.143C34.7139 14.1667 33.1426 14.1667 29.9999 14.1667H15.8333" stroke="#4F3BE2" stroke-width="1.5" stroke-linecap="round" stroke-linejoin="round"/>
<path d="M25.4166 23.3333C25.4166 24.9442 24.1108 26.25 22.4999 26.25C20.8891 26.25 19.5833 24.9442 19.5833 23.3333C19.5833 21.7225 20.8891 20.4167 22.4999 20.4167C24.1108 20.4167 25.4166 21.7225 25.4166 23.3333Z" stroke="#4F3BE2" stroke-width="1.5" stroke-linecap="round" stroke-linejoin="round"/>
</svg>
