<svg width="40" height="40" viewBox="0 0 40 40" fill="none" xmlns="http://www.w3.org/2000/svg">
<path d="M16.55 21.65C16.7166 21.65 20.5833 21.8167 22.8833 21.25H22.9C25.55 20.6 29.2333 18.7333 30.1833 12.6333C30.1833 12.6333 32.3 5 21.8 5H12.7833C11.9666 5 11.2666 5.6 11.1333 6.4L7.29998 30.6667C7.21664 31.1667 7.61664 31.6333 8.11664 31.6333H13.8333L15.2333 22.7667C15.3333 22.1333 15.8833 21.65 16.55 21.65Z" fill="#353344"/>
<path d="M31.65 13.8167C30.3 20.0333 26.05 23.3167 19.2833 23.3167H16.8333L15.1167 34.1833C15.05 34.6167 15.3833 35 15.8167 35H18.9833C19.55 35 20.05 34.5833 20.1333 34.0167C20.2667 33.35 21 28.4833 21.15 27.65C21.2333 27.0833 21.7333 26.6667 22.3 26.6667H23.0333C27.7333 26.6667 31.4167 24.75 32.5 19.2333C32.9333 17 32.7 15.1667 31.65 13.8167Z" fill="#353344"/>
</svg>
