<svg width="40" height="40" viewBox="0 0 40 40" fill="none" xmlns="http://www.w3.org/2000/svg">
<path d="M20 27.5V12.5M25.9183 15.8767V12.5H14.0816V15.8767M16.315 27.5H23.685M20 36.25C27.5358 33.6525 32.9075 27.6142 33.75 19.9258C33.9837 16.5883 33.9639 13.2379 33.6908 9.90333C33.6549 9.37766 33.4242 8.88429 33.0439 8.51966C32.6635 8.15504 32.1609 7.94537 31.6341 7.93166C28.225 7.82666 24.2625 7.25833 21.2008 4.2425C20.8811 3.92672 20.4498 3.74965 20.0004 3.74965C19.551 3.74965 19.1197 3.92672 18.8 4.2425C15.7375 7.25833 11.775 7.82666 8.36664 7.93166C7.83993 7.94537 7.33726 8.15504 6.95692 8.51966C6.57657 8.88429 6.34589 9.37766 6.30998 9.90333C6.03661 13.2378 6.01655 16.5883 6.24998 19.9258C7.09248 27.6142 12.4641 33.6525 20 36.25Z" stroke="#4F3BE2" stroke-width="1.2" stroke-linecap="round" stroke-linejoin="round"/>
<path d="M23.25 19.4575H25.9192V22.1267H23.25V19.4575ZM14.0817 19.4575H16.7508V22.1267H14.0817V19.4575Z" stroke="#4F3BE2" stroke-width="1.2" stroke-linecap="round" stroke-linejoin="round"/>
</svg>
