<svg width="36" height="41" viewBox="0 0 36 41" fill="none" xmlns="http://www.w3.org/2000/svg">
<path d="M24.525 5.22502C24.525 5.22502 24.075 5.36002 23.31 5.60752C23.175 5.20252 22.995 4.68502 22.725 4.19002C21.87 2.54752 20.61 1.69252 19.08 1.67002C18.9675 1.67002 18.8775 1.67002 18.765 1.69252C18.72 1.64752 18.675 1.58002 18.63 1.53502C17.9775 0.815016 17.1225 0.477516 16.11 0.500016C14.1525 0.567516 12.195 1.98502 10.5975 4.50502C9.47255 6.28252 8.64005 8.51002 8.39255 10.22C6.14255 10.9175 4.56755 11.4125 4.52255 11.4125C3.37505 11.7725 3.35255 11.8175 3.19505 12.875C3.08255 13.685 0.112549 36.725 0.112549 36.725L24.8175 41V5.18002C24.705 5.18002 24.5925 5.20252 24.525 5.22502ZM18.81 7.00252C17.505 7.40752 16.065 7.85752 14.6475 8.28502C15.0525 6.73252 15.8175 5.20252 16.7625 4.19002C17.1225 3.80752 17.595 3.40252 18.18 3.15502C18.72 4.30252 18.8325 5.90002 18.81 7.00252ZM16.1325 1.80502C16.5825 1.80502 16.9875 1.89502 17.325 2.12002C16.785 2.39002 16.29 2.79502 15.795 3.31252C14.5575 4.64002 13.59 6.73252 13.2075 8.73501C12.015 9.09502 10.8675 9.45502 9.78755 9.79251C10.4625 6.62002 13.1175 1.89502 16.1325 1.80502ZM12.3075 19.7825C12.4425 21.875 17.9775 22.3475 18.2925 27.275C18.54 31.145 16.245 33.8 12.915 34.0025C8.95505 34.25 6.75005 31.91 6.75005 31.91L7.58255 28.3325C7.58255 28.3325 9.78755 29.9975 11.5425 29.885C12.69 29.8175 13.095 28.8725 13.0725 28.22C12.8925 25.475 8.39255 25.6325 8.12255 21.1325C7.87505 17.33 10.3725 13.505 15.8625 13.145C18 13.01 19.08 13.55 19.08 13.55L17.82 18.2525C17.82 18.2525 16.425 17.6225 14.76 17.7125C12.33 17.87 12.285 19.4 12.3075 19.7825ZM20.115 6.59752C20.0925 5.60752 19.98 4.21252 19.5075 3.02002C20.9925 3.31252 21.735 4.97752 22.05 5.99002C21.4875 6.17002 20.835 6.37252 20.115 6.59752ZM25.6275 40.91L35.8876 38.3675C35.8876 38.3675 31.4775 8.53252 31.455 8.33002C31.4325 8.12752 31.2525 8.01502 31.095 7.99252C30.9375 7.97002 28.0575 7.92502 28.0575 7.92502C28.0575 7.92502 26.3025 6.21502 25.6275 5.56252V40.91Z" fill="#353344"/>
</svg>
