<svg width="40" height="40" viewBox="0 0 40 40" fill="none" xmlns="http://www.w3.org/2000/svg">
<g clip-path="url(#clip0_234_343)">
<path d="M6.68333 0C4.9108 0 3.21087 0.704135 1.9575 1.9575C0.704135 3.21087 0 4.9108 0 6.68333L0 33.3167C0 37 3 39.9833 6.68333 40H33.3167C37 40 40 37 40 33.3167V6.66667C39.9956 4.89703 39.2895 3.20137 38.0366 1.95161C36.7837 0.701841 35.0863 -5.50257e-06 33.3167 0L6.66667 0H6.68333ZM9.38333 7.26667H30.6167C31.7833 7.26667 32.7167 8.21667 32.7167 9.38333V30.6167C32.7167 31.7833 31.7833 32.7333 30.6167 32.7333H9.38333C8.21667 32.7333 7.28333 31.7833 7.28333 30.6167V9.38333C7.28332 8.82483 7.50403 8.28896 7.89739 7.89249C8.29074 7.49601 8.82485 7.27106 9.38333 7.26667ZM15.7667 14.5167C15.444 14.5167 15.1345 14.6448 14.9064 14.873C14.6782 15.1012 14.55 15.4107 14.55 15.7333V24.2167C14.55 24.8833 15.0833 25.4167 15.75 25.4167H24.25C24.5698 25.4167 24.8768 25.2908 25.1045 25.0662C25.3322 24.8416 25.4623 24.5364 25.4667 24.2167V15.7333C25.4667 15.5736 25.4352 15.4153 25.3741 15.2677C25.3129 15.1201 25.2233 14.986 25.1103 14.873C24.9973 14.76 24.8632 14.6704 24.7156 14.6093C24.568 14.5481 24.4098 14.5167 24.25 14.5167H15.75H15.7667Z" fill="#353344"/>
</g>
<defs>
<clipPath id="clip0_234_343">
<rect width="40" height="40" fill="white"/>
</clipPath>
</defs>
</svg>
