<svg width="40" height="40" viewBox="0 0 40 40" fill="none" xmlns="http://www.w3.org/2000/svg">
<g clip-path="url(#clip0_104_333)">
<path d="M5 0C3.67392 0 2.40215 0.526784 1.46447 1.46447C0.526784 2.40215 0 3.67392 0 5L0 35C0 36.3261 0.526784 37.5979 1.46447 38.5355C2.40215 39.4732 3.67392 40 5 40H35C36.3261 40 37.5979 39.4732 38.5355 38.5355C39.4732 37.5979 40 36.3261 40 35V5C40 3.67392 39.4732 2.40215 38.5355 1.46447C37.5979 0.526784 36.3261 0 35 0L5 0ZM20.565 13.4625C19.105 13.4625 18.2225 13.8725 18.2225 14.945C18.2225 16.115 19.74 16.63 21.6225 17.27C24.6925 18.3075 28.7325 19.6775 28.75 24.7525C28.75 29.67 24.81 32.5 19.075 32.5C16.4878 32.4891 13.9294 31.9569 11.5525 30.935V24.395C13.8675 25.66 16.79 26.595 19.0775 26.595C20.62 26.595 21.7225 26.1825 21.7225 24.9175C21.7225 23.6225 20.0775 23.03 18.09 22.315C15.065 21.225 11.25 19.85 11.25 15.275C11.25 10.4125 14.97 7.5 20.565 7.5C22.9032 7.47908 25.2236 7.90769 27.4 8.7625V15.22C25.305 14.095 22.66 13.4625 20.565 13.4625Z" fill="#353344"/>
</g>
<defs>
<clipPath id="clip0_104_333">
<rect width="40" height="40" fill="white"/>
</clipPath>
</defs>
</svg>
